<?xml version="1.0" encoding="UTF-8" standalone="no" ?>
<!DOCTYPE svg PUBLIC "-//W3C//DTD SVG 1.1//EN" "http://www.w3.org/Graphics/SVG/1.1/DTD/svg11.dtd">
<svg xmlns="http://www.w3.org/2000/svg" xmlns:xlink="http://www.w3.org/1999/xlink" version="1.1" width="500" height="500" viewBox="0 0 500 500" xml:space="preserve">
<desc>Created with Fabric.js 5.3.0</desc>
<defs>
</defs>
<g transform="matrix(1 0 0 1 295.1032142521 416.1531946527)" id="vf4veOg1VTkR_nNLONciE"  >
<path style="stroke: rgb(0,0,0); stroke-width: 0; stroke-dasharray: none; stroke-linecap: butt; stroke-dashoffset: 0; stroke-linejoin: miter; stroke-miterlimit: 4; fill: rgb(255,255,255); fill-rule: nonzero; opacity: 1;"  transform=" translate(-247.572815, -247.572815)" d="M 0 0 L 495.14563 0 L 495.14563 495.14563 L 0 495.14563 z" stroke-linecap="round" />
</g>
<g transform="matrix(1.6348736671 0 0 1.1597133353 151.4014331664 148.0986843586)" id="K2N-UQ5E_3XqSxLkIPqss"  >
<path style="stroke: rgb(0,0,0); stroke-width: 8; stroke-dasharray: none; stroke-linecap: butt; stroke-dashoffset: 0; stroke-linejoin: miter; stroke-miterlimit: 4; fill: rgb(255,204,146); fill-rule: nonzero; opacity: 1;"  transform=" translate(0, 0)" d="M 0 -123.17961 C 67.99514 -123.17961 123.17961 -67.99515 123.17961 0 C 123.17961 67.99514 67.99515 123.17961 0 123.17961 C -67.99514 123.17961 -123.17961 67.99515 -123.17961 0 C -123.17961 -67.99514 -67.99515 -123.17961 0 -123.17961 z" stroke-linecap="round" />
</g>
<g transform="matrix(5.6305254702 1.614527198 -1.614527198 5.6305254702 181.131558719 385.782417591)" id="09_SyQeXfKqQDIHQ5Mf20"  >
<path style="stroke: none; stroke-width: 1; stroke-dasharray: none; stroke-linecap: butt; stroke-dashoffset: 0; stroke-linejoin: miter; stroke-miterlimit: 4; fill: rgb(255,204,146); fill-rule: nonzero; opacity: 1;"  transform=" translate(-40, -40)" d="M 0 0 L 80 80 L 0 80 L 0 0 z" stroke-linecap="round" />
</g>
<g transform="matrix(0 1.8616621858 -1.8616621858 0 78.2807902698 80.0130836518)" id="rLBiNMMCIOgPFOq5BOGEE"  >
<path style="stroke: rgb(0,0,0); stroke-width: 5; stroke-dasharray: none; stroke-linecap: butt; stroke-dashoffset: 0; stroke-linejoin: miter; stroke-miterlimit: 4; fill: rgb(255,204,146); fill-rule: nonzero; opacity: 1;"  transform=" translate(-40, -40)" d="M 0 0 L 80 80 L 0 80 L 0 0 z" stroke-linecap="round" />
</g>
<g transform="matrix(-0.1014831104 -5.8139635002 5.8139635002 -0.1014831104 338.595238917 331.9333722596)" id="HUVqYK2AlSlrsYjM2fzbz"  >
<path style="stroke: none; stroke-width: 1; stroke-dasharray: none; stroke-linecap: butt; stroke-dashoffset: 0; stroke-linejoin: miter; stroke-miterlimit: 4; fill: rgb(255,204,146); fill-rule: nonzero; opacity: 1;"  transform=" translate(-40, -40)" d="M 0 0 L 80 80 L 0 80 L 0 0 z" stroke-linecap="round" />
</g>
<g transform="matrix(0.1563814565 -0.036103504 0.0786520935 0.3406796453 250 81.0130836518)" id="zKg2gRAPgxYtyiEs0H-1A"  >
<path style="stroke: rgb(147,205,220); stroke-width: 0; stroke-dasharray: none; stroke-linecap: butt; stroke-dashoffset: 0; stroke-linejoin: miter; stroke-miterlimit: 4; fill: rgb(0,0,0); fill-rule: nonzero; opacity: 1;"  transform=" translate(0, 0)" d="M 0 -60.67961 C 33.49515 -60.67961 60.67961 -33.49513999999999 60.67961 0 C 60.67961 33.49515 33.49513999999999 60.67961 0 60.67961 C -33.49515 60.67961 -60.67961 33.49513999999999 -60.67961 0 C -60.67961 -33.49515 -33.49513999999999 -60.67961 0 -60.67961 z" stroke-linecap="round" />
</g>
<g transform="matrix(0.1563814565 -0.036103504 0.0786520935 0.3406796453 173.9126213592 105.8761382046)" id="vE1UN-gm0p8jRLhNfpAz8"  >
<path style="stroke: rgb(147,205,220); stroke-width: 0; stroke-dasharray: none; stroke-linecap: butt; stroke-dashoffset: 0; stroke-linejoin: miter; stroke-miterlimit: 4; fill: rgb(0,0,0); fill-rule: nonzero; opacity: 1;"  transform=" translate(0, 0)" d="M 0 -60.67961 C 33.49515 -60.67961 60.67961 -33.49513999999999 60.67961 0 C 60.67961 33.49515 33.49513999999999 60.67961 0 60.67961 C -33.49515 60.67961 -60.67961 33.49513999999999 -60.67961 0 C -60.67961 -33.49515 -33.49513999999999 -60.67961 0 -60.67961 z" stroke-linecap="round" />
</g>
<g transform="matrix(1 0 0 1 430.9077198605 944.0923229372)" id="DrHFNk89I28KxdCR3TON-"  >
<path style="stroke: rgb(0,0,0); stroke-width: 1; stroke-dasharray: none; stroke-linecap: round; stroke-dashoffset: 0; stroke-linejoin: round; stroke-miterlimit: 10; fill: none; fill-rule: nonzero; opacity: 1;"  transform=" translate(-430.9077198605, -944.0923229372)" d="M 430.9067198604939 944.0923229371508 L 430.9087198604939 944.0923229371508" stroke-linecap="round" />
</g>
<g transform="matrix(1.2507878093 0 0 1.47648 84.7535607495 99.3269161451)" id="vlZ5z8XDGvUE_CmMGwEns"  >
<path style="stroke: rgb(0,0,0); stroke-width: 0; stroke-dasharray: none; stroke-linecap: butt; stroke-dashoffset: 0; stroke-linejoin: miter; stroke-miterlimit: 4; fill: rgb(255,204,146); fill-rule: nonzero; opacity: 1;"  transform=" translate(0, 0)" d="M -60.67961 -60.67961 L 60.67961 -60.67961 L 60.67961 60.67961 L -60.67961 60.67961 z" stroke-linecap="round" />
</g>
<g transform="matrix(0.0741732597 0 0 3.2614460317 3.8834717449 363.8213432685)" id="HDpJ6OU_-A5tkG4TmiAWU"  >
<path style="stroke: rgb(0,0,0); stroke-width: 6; stroke-dasharray: none; stroke-linecap: butt; stroke-dashoffset: 0; stroke-linejoin: miter; stroke-miterlimit: 4; fill: rgb(0,0,0); fill-rule: nonzero; opacity: 1;"  transform=" translate(0, 0)" d="M -60.67961 -60.67961 L 60.67961 -60.67961 L 60.67961 60.67961 L -60.67961 60.67961 z" stroke-linecap="round" />
</g>
<g transform="matrix(0 0.0741732597 -4.1707609664 0 248.802442113 496.6698796334)" id="xj18UdQXntq93L7rn7W66"  >
<path style="stroke: rgb(0,0,0); stroke-width: 6; stroke-dasharray: none; stroke-linecap: butt; stroke-dashoffset: 0; stroke-linejoin: miter; stroke-miterlimit: 4; fill: rgb(0,0,0); fill-rule: nonzero; opacity: 1;"  transform=" translate(0, 0)" d="M -60.67961 -60.67961 L 60.67961 -60.67961 L 60.67961 60.67961 L -60.67961 60.67961 z" stroke-linecap="round" />
</g>
<g transform="matrix(-0.0741732597 0 0 -2.6888277065 495.6698795109 337.058229148)" id="fpWgblJsM8cO0qW-gAw93"  >
<path style="stroke: rgb(0,0,0); stroke-width: 6; stroke-dasharray: none; stroke-linecap: butt; stroke-dashoffset: 0; stroke-linejoin: miter; stroke-miterlimit: 4; fill: rgb(0,0,0); fill-rule: nonzero; opacity: 1;"  transform=" translate(0, 0)" d="M -60.67961 -60.67961 L 60.67961 -60.67961 L 60.67961 60.67961 L -60.67961 60.67961 z" stroke-linecap="round" />
</g>
<g transform="matrix(0 0.0741732597 -2.6888277065 0 523.165025142 163.8570507985)" id="xKRApsZiD0kY6b9TdO1uW"  >
<path style="stroke: rgb(0,0,0); stroke-width: 6; stroke-dasharray: none; stroke-linecap: butt; stroke-dashoffset: 0; stroke-linejoin: miter; stroke-miterlimit: 4; fill: rgb(0,0,0); fill-rule: nonzero; opacity: 1;"  transform=" translate(0, 0)" d="M -60.67961 -60.67961 L 60.67961 -60.67961 L 60.67961 60.67961 L -60.67961 60.67961 z" stroke-linecap="round" />
</g>
</svg>